<svg width="442" height="177" viewBox="0 0 442 177" fill="none" xmlns="http://www.w3.org/2000/svg">
<g filter="url(#filter0_d_14_275)">
<path d="M373.672 150.815C346.608 69.3195 243.659 -58.3872 115.643 168.712C121.668 147.784 129.212 128.957 137.787 112.147H90.9019L145.811 97.4899C185.252 30.2577 241.13 0 274.55 0C322.646 0 359.594 41.256 383.913 84.1862H438V112.147H398.027C404.402 126.364 409.277 139.774 412.594 150.815H373.672Z" fill="white"/>
</g>
<g filter="url(#filter1_d_14_275)">
<path d="M286.771 150.815C259.706 69.3195 156.757 -58.3872 28.7411 168.712C34.7666 147.784 42.3099 128.957 50.8849 112.147H4L58.9088 97.4899C98.3502 30.2577 154.228 0 187.648 0C235.744 0 272.692 41.256 297.011 84.1862H383.517L398.623 112.147H311.125C317.501 126.364 322.376 139.774 325.692 150.815H286.771Z" fill="white"/>
</g>
<defs>
<filter id="filter0_d_14_275" x="86.9019" y="0" width="355.098" height="176.712" filterUnits="userSpaceOnUse" color-interpolation-filters="sRGB">
<feFlood flood-opacity="0" result="BackgroundImageFix"/>
<feColorMatrix in="SourceAlpha" type="matrix" values="0 0 0 0 0 0 0 0 0 0 0 0 0 0 0 0 0 0 127 0" result="hardAlpha"/>
<feOffset dy="4"/>
<feGaussianBlur stdDeviation="2"/>
<feComposite in2="hardAlpha" operator="out"/>
<feColorMatrix type="matrix" values="0 0 0 0 0 0 0 0 0 0 0 0 0 0 0 0 0 0 0.25 0"/>
<feBlend mode="normal" in2="BackgroundImageFix" result="effect1_dropShadow_14_275"/>
<feBlend mode="normal" in="SourceGraphic" in2="effect1_dropShadow_14_275" result="shape"/>
</filter>
<filter id="filter1_d_14_275" x="0" y="0" width="402.623" height="176.712" filterUnits="userSpaceOnUse" color-interpolation-filters="sRGB">
<feFlood flood-opacity="0" result="BackgroundImageFix"/>
<feColorMatrix in="SourceAlpha" type="matrix" values="0 0 0 0 0 0 0 0 0 0 0 0 0 0 0 0 0 0 127 0" result="hardAlpha"/>
<feOffset dy="4"/>
<feGaussianBlur stdDeviation="2"/>
<feComposite in2="hardAlpha" operator="out"/>
<feColorMatrix type="matrix" values="0 0 0 0 0 0 0 0 0 0 0 0 0 0 0 0 0 0 0.25 0"/>
<feBlend mode="normal" in2="BackgroundImageFix" result="effect1_dropShadow_14_275"/>
<feBlend mode="normal" in="SourceGraphic" in2="effect1_dropShadow_14_275" result="shape"/>
</filter>
</defs>
</svg>
