<svg width="1172" height="159" viewBox="0 0 1172 159" fill="none" xmlns="http://www.w3.org/2000/svg">
<g filter="url(#filter0_d_7_2)">
<path d="M10.1094 141.098H163.723V107.406H61.2812V90.6094H163.723V60.2383H61.2812V43.4414H163.723V9.84766H10.1094V141.098ZM221.344 9.84766H163.727L230.914 141.098H291.754L359.039 9.84766H301.422L261.383 100.961L221.344 9.84766ZM358.945 9.75V141H410.117V108.969H455.82L480.527 141H535.02L506.406 104.184C515 100.18 521.934 94.125 527.109 86.2148C532.383 78.207 535.02 69.2227 535.02 59.3594C535.41 32.2109 512.461 9.45703 485.41 9.75H358.945ZM472.52 48.1289C478.77 48.1289 483.75 53.1094 483.75 59.3594C483.75 62.3867 482.676 65.0234 480.43 67.2695C478.281 69.418 475.645 70.4922 472.52 70.4922H410.117V48.1289H472.52ZM546.938 9.65234V140.902H598.109V9.65234H546.938ZM749.285 75.4727C749.285 88.6562 741.766 99.4961 728.484 99.4961H672.43V51.4492H728.484C741.766 51.4492 749.285 62.1914 749.285 75.4727ZM621.258 9.84766V141.098H738.055C774.09 141.586 800.848 111.117 800.555 75.4727C800.848 39.6328 774.09 9.35938 738.055 9.84766H621.258ZM899.484 91.293H940.695C932.98 101.254 920.09 102.426 899.875 102.426C878.879 102.133 861.105 98.4219 861.398 76.8398V73.6172C861.105 52.2305 878.879 48.3242 899.875 48.0312C907.395 48.0312 914.23 48.8125 920.285 50.375C926.34 51.9375 931.027 54.8672 934.25 59.2617H988.645C982.883 18.832 945.383 6.42969 899.875 6.42969C850.461 6.52734 810.031 20.7852 810.227 70.4922V80.0625C810.031 129.672 850.461 143.93 899.875 144.125C922.141 144.125 945.285 138.754 960.52 123.715L963.059 144.125H988.645V68.832H899.484V91.293ZM1008.18 141.098H1161.79V107.406H1059.35V90.6094H1161.79V60.2383H1059.35V43.4414H1161.79V9.84766H1008.18V141.098Z" fill="white"/>
</g>
<defs>
<filter id="filter0_d_7_2" x="0.109375" y="0.429688" width="1171.68" height="157.695" filterUnits="userSpaceOnUse" color-interpolation-filters="sRGB">
<feFlood flood-opacity="0" result="BackgroundImageFix"/>
<feColorMatrix in="SourceAlpha" type="matrix" values="0 0 0 0 0 0 0 0 0 0 0 0 0 0 0 0 0 0 127 0" result="hardAlpha"/>
<feOffset dy="4"/>
<feGaussianBlur stdDeviation="5"/>
<feComposite in2="hardAlpha" operator="out"/>
<feColorMatrix type="matrix" values="0 0 0 0 0 0 0 0 0 0 0 0 0 0 0 0 0 0 0.25 0"/>
<feBlend mode="normal" in2="BackgroundImageFix" result="effect1_dropShadow_7_2"/>
<feBlend mode="normal" in="SourceGraphic" in2="effect1_dropShadow_7_2" result="shape"/>
</filter>
</defs>
</svg>
